<svg xmlns="http://www.w3.org/2000/svg" width="936.6081" height="931.9518" viewBox="0 0 936.6081 931.9518"><defs><style>.a{fill:none;stroke:#fff;stroke-width:30px;}.a,.b{stroke-miterlimit:10;}.b{fill:#fff;stroke:#000;}</style></defs><title>logofwhite</title><rect class="a" x="15" y="92.3082" width="824.6436" height="824.6436"/><rect class="b" x="111.4645" y="0.5" width="824.6436" height="824.6436"/><path d="M1069.4158,636.1043h-57.952l-60.692-146.4612L895.1376,563.4v72.7041H843.2965V348.45h51.841V499.5475q9.9022-15.38,14.33-21.2842L1004.9313,348.45h52.4725L989.1262,443.07Z" transform="translate(-523.4817 -60.5)"/><path d="M1078.0563,566.7718l50.3663-10.7475q9.058,42.7831,69.5424,42.7794,27.6051,0,42.4635-10.9575t14.8569-27.1857a38.2657,38.2657,0,0,0-6.7429-21.8111q-6.7468-10.0062-28.8711-15.699l-55.0023-14.33q-28.242-7.374-41.7258-16.7535-13.4884-9.3741-21.6-26.4476a83.8373,83.8373,0,0,1-8.1136-36.4575q0-38.5641,28.66-61.8511,28.6564-23.2827,73.3358-23.2864,37.089,0,66.2767,16.2269,29.1855,16.23,37.1956,45.9405l-49.3127,12.223q-11.38-32.6628-53.1051-32.6645-24.2373,0-36.9847,10.1153-12.7535,10.1155-12.75,25.71,0,24.6566,40.0405,34.5608l48.8907,12.2229q44.4615,11.1725,59.6385,32.98a82.4778,82.4778,0,0,1,15.1727,48.1532q0,42.3576-31.9268,66.6976t-82.7139,24.34q-42.7832,0-74.9162-17.9127Q1088.5915,604.7081,1078.0563,566.7718Z" transform="translate(-523.4817 -60.5)"/></svg>