<svg xmlns="http://www.w3.org/2000/svg" width="1924" height="1079" viewBox="0 0 1924 1079"><defs><style>.a{fill:none;}.a,.b,.d{stroke:#000;stroke-miterlimit:10;}.b{fill:#ccc;opacity:0.21;}.c{fill:#fff;}.d{opacity:0.8;}</style></defs><title>ksbg-contact</title><rect class="a" x="1209.8429" y="852.0424" width="174.1826" height="174.1826"/><rect class="b" x="1230.2183" y="832.6505" width="174.1826" height="174.1826"/><path class="c" d="M1323.9877,957.125H1311.747l-12.82-30.9358-11.7511,15.579v15.3567h-10.95V896.3661h10.95v31.9151q2.0914-3.2486,3.0268-4.4957l20.164-27.4194h11.0833l-14.4217,19.9859Z" transform="translate(-2 -3)"/><path class="c" d="M1325.8127,942.4805l10.6385-2.27q1.9133,9.0367,14.6889,9.036,5.8308,0,8.9692-2.3145a6.913,6.913,0,0,0,3.1381-5.7422,8.0822,8.0822,0,0,0-1.4243-4.607q-1.425-2.1135-6.0982-3.3159l-11.6177-3.0269a28.6089,28.6089,0,0,1-8.8133-3.5387,13.8507,13.8507,0,0,1-4.5625-5.5863,17.7077,17.7077,0,0,1-1.7137-7.7006,15.9884,15.9884,0,0,1,6.0536-13.0643q6.053-4.9177,15.49-4.9186a28.319,28.319,0,0,1,13.9991,3.4275,15.4459,15.4459,0,0,1,7.8565,9.7036l-10.4159,2.5818q-2.4037-6.8991-11.2169-6.8995-5.12,0-7.812,2.1366a6.639,6.639,0,0,0-2.693,5.43q0,5.208,8.4574,7.3l10.3268,2.5817q9.3912,2.36,12.5969,6.9661a17.4207,17.4207,0,0,1,3.2048,10.171,16.75,16.75,0,0,1-6.7436,14.088q-6.7437,5.1411-17.471,5.1412a31.9669,31.9669,0,0,1-15.8239-3.7836A18.5581,18.5581,0,0,1,1325.8127,942.4805Z" transform="translate(-2 -3)"/><rect class="a" x="1444.8429" y="609.0424" width="174.1826" height="174.1826"/><rect class="b" x="1465.2183" y="589.6505" width="174.1826" height="174.1826"/><path class="c" d="M1558.9877,714.125H1546.747l-12.82-30.9358-11.7511,15.579v15.3567h-10.95V653.3661h10.95v31.9151q2.0914-3.2486,3.0268-4.4957l20.164-27.4194h11.0833l-14.4217,19.9859Z" transform="translate(-2 -3)"/><path class="c" d="M1560.8127,699.4805l10.6385-2.27q1.9133,9.0367,14.6889,9.036,5.8308,0,8.9692-2.3145a6.913,6.913,0,0,0,3.1381-5.7422,8.0822,8.0822,0,0,0-1.4243-4.607q-1.425-2.1135-6.0982-3.3159l-11.6177-3.0269a28.6089,28.6089,0,0,1-8.8133-3.5387,13.8507,13.8507,0,0,1-4.5625-5.5863,17.7077,17.7077,0,0,1-1.7137-7.7006,15.9884,15.9884,0,0,1,6.0536-13.0643q6.053-4.9177,15.49-4.9186a28.319,28.319,0,0,1,13.9991,3.4275,15.4459,15.4459,0,0,1,7.8565,9.7036l-10.4159,2.5818q-2.4037-6.8991-11.2169-6.8995-5.12,0-7.812,2.1366a6.639,6.639,0,0,0-2.693,5.43q0,5.208,8.4574,7.3l10.3268,2.5817q9.3912,2.36,12.5969,6.9661a17.4207,17.4207,0,0,1,3.2048,10.171,16.75,16.75,0,0,1-6.7436,14.088q-6.7437,5.1411-17.471,5.1412a31.9669,31.9669,0,0,1-15.8239-3.7836A18.5581,18.5581,0,0,1,1560.8127,699.4805Z" transform="translate(-2 -3)"/><rect class="a" x="1444.8429" y="852.0424" width="174.1826" height="174.1826"/><rect class="b" x="1465.2183" y="832.6505" width="174.1826" height="174.1826"/><path class="c" d="M1558.9877,957.125H1546.747l-12.82-30.9358-11.7511,15.579v15.3567h-10.95V896.3661h10.95v31.9151q2.0914-3.2486,3.0268-4.4957l20.164-27.4194h11.0833l-14.4217,19.9859Z" transform="translate(-2 -3)"/><path class="c" d="M1560.8127,942.4805l10.6385-2.27q1.9133,9.0367,14.6889,9.036,5.8308,0,8.9692-2.3145a6.913,6.913,0,0,0,3.1381-5.7422,8.0822,8.0822,0,0,0-1.4243-4.607q-1.425-2.1135-6.0982-3.3159l-11.6177-3.0269a28.6089,28.6089,0,0,1-8.8133-3.5387,13.8507,13.8507,0,0,1-4.5625-5.5863,17.7077,17.7077,0,0,1-1.7137-7.7006,15.9884,15.9884,0,0,1,6.0536-13.0643q6.053-4.9177,15.49-4.9186a28.319,28.319,0,0,1,13.9991,3.4275,15.4459,15.4459,0,0,1,7.8565,9.7036l-10.4159,2.5818q-2.4037-6.8991-11.2169-6.8995-5.12,0-7.812,2.1366a6.639,6.639,0,0,0-2.693,5.43q0,5.208,8.4574,7.3l10.3268,2.5817q9.3912,2.36,12.5969,6.9661a17.4207,17.4207,0,0,1,3.2048,10.171,16.75,16.75,0,0,1-6.7436,14.088q-6.7437,5.1411-17.471,5.1412a31.9669,31.9669,0,0,1-15.8239-3.7836A18.5581,18.5581,0,0,1,1560.8127,942.4805Z" transform="translate(-2 -3)"/><rect class="a" x="1677.8429" y="373.0424" width="174.1826" height="174.1826"/><rect class="b" x="1698.2183" y="353.6505" width="174.1826" height="174.1826"/><path class="c" d="M1791.9877,478.125H1779.747l-12.82-30.9358-11.7511,15.579v15.3567h-10.95V417.3661h10.95v31.9151q2.0914-3.2486,3.0268-4.4957l20.164-27.4194h11.0833l-14.4217,19.9859Z" transform="translate(-2 -3)"/><path class="c" d="M1793.8127,463.4805l10.6385-2.27q1.9133,9.0367,14.6889,9.036,5.8308,0,8.9692-2.3145a6.913,6.913,0,0,0,3.1381-5.7422,8.0822,8.0822,0,0,0-1.4243-4.607q-1.425-2.1135-6.0982-3.3159l-11.6177-3.0269a28.6089,28.6089,0,0,1-8.8133-3.5387,13.8507,13.8507,0,0,1-4.5625-5.5863,17.7077,17.7077,0,0,1-1.7137-7.7006,15.9884,15.9884,0,0,1,6.0536-13.0643q6.053-4.9178,15.49-4.9186a28.319,28.319,0,0,1,13.9991,3.4275,15.4459,15.4459,0,0,1,7.8565,9.7036l-10.4159,2.5818q-2.4037-6.8991-11.2169-6.8995-5.12,0-7.812,2.1366a6.639,6.639,0,0,0-2.693,5.43q0,5.208,8.4574,7.3l10.3268,2.5817q9.3912,2.36,12.5969,6.9661a17.4207,17.4207,0,0,1,3.2048,10.171,16.75,16.75,0,0,1-6.7436,14.088q-6.7437,5.1411-17.471,5.1412a31.9669,31.9669,0,0,1-15.8239-3.7836A18.5581,18.5581,0,0,1,1793.8127,463.4805Z" transform="translate(-2 -3)"/><rect class="a" x="1677.8429" y="609.0424" width="174.1826" height="174.1826"/><rect class="b" x="1698.2183" y="589.6505" width="174.1826" height="174.1826"/><path class="c" d="M1791.9877,714.125H1779.747l-12.82-30.9358-11.7511,15.579v15.3567h-10.95V653.3661h10.95v31.9151q2.0914-3.2486,3.0268-4.4957l20.164-27.4194h11.0833l-14.4217,19.9859Z" transform="translate(-2 -3)"/><path class="c" d="M1793.8127,699.4805l10.6385-2.27q1.9133,9.0367,14.6889,9.036,5.8308,0,8.9692-2.3145a6.913,6.913,0,0,0,3.1381-5.7422,8.0822,8.0822,0,0,0-1.4243-4.607q-1.425-2.1135-6.0982-3.3159l-11.6177-3.0269a28.6089,28.6089,0,0,1-8.8133-3.5387,13.8507,13.8507,0,0,1-4.5625-5.5863,17.7077,17.7077,0,0,1-1.7137-7.7006,15.9884,15.9884,0,0,1,6.0536-13.0643q6.053-4.9177,15.49-4.9186a28.319,28.319,0,0,1,13.9991,3.4275,15.4459,15.4459,0,0,1,7.8565,9.7036l-10.4159,2.5818q-2.4037-6.8991-11.2169-6.8995-5.12,0-7.812,2.1366a6.639,6.639,0,0,0-2.693,5.43q0,5.208,8.4574,7.3l10.3268,2.5817q9.3912,2.36,12.5969,6.9661a17.4207,17.4207,0,0,1,3.2048,10.171,16.75,16.75,0,0,1-6.7436,14.088q-6.7437,5.1411-17.471,5.1412a31.9669,31.9669,0,0,1-15.8239-3.7836A18.5581,18.5581,0,0,1,1793.8127,699.4805Z" transform="translate(-2 -3)"/><rect class="a" x="1677.8429" y="852.0424" width="174.1826" height="174.1826"/><rect class="b" x="1698.2183" y="832.6505" width="174.1826" height="174.1826"/><path class="c" d="M1791.9877,957.125H1779.747l-12.82-30.9358-11.7511,15.579v15.3567h-10.95V896.3661h10.95v31.9151q2.0914-3.2486,3.0268-4.4957l20.164-27.4194h11.0833l-14.4217,19.9859Z" transform="translate(-2 -3)"/><path class="c" d="M1793.8127,942.4805l10.6385-2.27q1.9133,9.0367,14.6889,9.036,5.8308,0,8.9692-2.3145a6.913,6.913,0,0,0,3.1381-5.7422,8.0822,8.0822,0,0,0-1.4243-4.607q-1.425-2.1135-6.0982-3.3159l-11.6177-3.0269a28.6089,28.6089,0,0,1-8.8133-3.5387,13.8507,13.8507,0,0,1-4.5625-5.5863,17.7077,17.7077,0,0,1-1.7137-7.7006,15.9884,15.9884,0,0,1,6.0536-13.0643q6.053-4.9177,15.49-4.9186a28.319,28.319,0,0,1,13.9991,3.4275,15.4459,15.4459,0,0,1,7.8565,9.7036l-10.4159,2.5818q-2.4037-6.8991-11.2169-6.8995-5.12,0-7.812,2.1366a6.639,6.639,0,0,0-2.693,5.43q0,5.208,8.4574,7.3l10.3268,2.5817q9.3912,2.36,12.5969,6.9661a17.4207,17.4207,0,0,1,3.2048,10.171,16.75,16.75,0,0,1-6.7436,14.088q-6.7437,5.1411-17.471,5.1412a31.9669,31.9669,0,0,1-15.8239-3.7836A18.5581,18.5581,0,0,1,1793.8127,942.4805Z" transform="translate(-2 -3)"/><rect class="d" x="0.5" y="0.5" width="1923" height="1078"/></svg>