<svg xmlns="http://www.w3.org/2000/svg" width="1924" height="1079" viewBox="0 0 1924 1079"><defs><style>.a{fill:none;}.a,.b,.d{stroke:#000;stroke-miterlimit:10;}.b{fill:#ccc;opacity:0.21;}.c{fill:#fff;}.d{opacity:0.8;}</style></defs><title>ksbg</title><rect class="a" x="47.3931" y="106.1047" width="174.1826" height="174.1826"/><rect class="b" x="67.7685" y="86.7128" width="174.1826" height="174.1826"/><path class="c" d="M156.3319,207.4381H144.0912l-12.8195-30.9357-11.7511,15.579v15.3567h-10.95V146.6793h10.95v31.9151q2.0916-3.2487,3.0269-4.4957l20.164-27.4194h11.0833L139.373,166.6652Z" transform="translate(3.206 0.7491)"/><path class="c" d="M158.1569,192.7936l10.6385-2.27q1.9132,9.0367,14.6888,9.0359,5.8308,0,8.9693-2.3144a6.9136,6.9136,0,0,0,3.1381-5.7422,8.083,8.083,0,0,0-1.4243-4.607q-1.425-2.1135-6.0982-3.316l-11.6177-3.0268a28.6132,28.6132,0,0,1-8.8134-3.5387,13.8513,13.8513,0,0,1-4.5624-5.5863,17.71,17.71,0,0,1-1.7138-7.7006,15.9882,15.9882,0,0,1,6.0537-13.0643q6.0528-4.9179,15.49-4.9186a28.32,28.32,0,0,1,13.9991,3.4274,15.4466,15.4466,0,0,1,7.8565,9.7037l-10.4159,2.5817q-2.4038-6.8991-11.217-6.8994-5.1194,0-7.8119,2.1366a6.6389,6.6389,0,0,0-2.6931,5.43q0,5.2082,8.4575,7.3l10.3267,2.5818q9.3913,2.36,12.597,6.9661a17.4212,17.4212,0,0,1,3.2048,10.171,16.75,16.75,0,0,1-6.7437,14.0879q-6.7435,5.1413-17.4709,5.1412a31.9669,31.9669,0,0,1-15.8239-3.7835A18.558,18.558,0,0,1,158.1569,192.7936Z" transform="translate(3.206 0.7491)"/><rect class="a" x="47.3931" y="339.1047" width="174.1826" height="174.1826"/><rect class="b" x="67.7685" y="319.7128" width="174.1826" height="174.1826"/><path class="c" d="M156.3319,440.4381H144.0912l-12.8195-30.9357-11.7511,15.579v15.3567h-10.95V379.6793h10.95v31.9151q2.0916-3.2487,3.0269-4.4957l20.164-27.4194h11.0833L139.373,399.6652Z" transform="translate(3.206 0.7491)"/><path class="c" d="M158.1569,425.7936l10.6385-2.27q1.9132,9.0367,14.6888,9.0359,5.8308,0,8.9693-2.3144a6.9136,6.9136,0,0,0,3.1381-5.7422,8.083,8.083,0,0,0-1.4243-4.607q-1.425-2.1135-6.0982-3.316l-11.6177-3.0268a28.6132,28.6132,0,0,1-8.8134-3.5387,13.8513,13.8513,0,0,1-4.5624-5.5863,17.71,17.71,0,0,1-1.7138-7.7006,15.9882,15.9882,0,0,1,6.0537-13.0643q6.0528-4.9179,15.49-4.9186a28.32,28.32,0,0,1,13.9991,3.4274,15.4466,15.4466,0,0,1,7.8565,9.7037l-10.4159,2.5817q-2.4038-6.8991-11.217-6.8994-5.1194,0-7.8119,2.1366a6.6389,6.6389,0,0,0-2.6931,5.43q0,5.2081,8.4575,7.3l10.3267,2.5818q9.3913,2.36,12.597,6.9661a17.4212,17.4212,0,0,1,3.2048,10.171,16.75,16.75,0,0,1-6.7437,14.0879q-6.7435,5.1413-17.4709,5.1412a31.9669,31.9669,0,0,1-15.8239-3.7835A18.558,18.558,0,0,1,158.1569,425.7936Z" transform="translate(3.206 0.7491)"/><rect class="a" x="47.3931" y="575.1047" width="174.1826" height="174.1826"/><rect class="b" x="67.7685" y="555.7128" width="174.1826" height="174.1826"/><path class="c" d="M156.3319,676.4381H144.0912l-12.8195-30.9357-11.7511,15.579v15.3567h-10.95V615.6793h10.95v31.9151q2.0916-3.2487,3.0269-4.4957l20.164-27.4194h11.0833L139.373,635.6652Z" transform="translate(3.206 0.7491)"/><path class="c" d="M158.1569,661.7936l10.6385-2.27q1.9132,9.0367,14.6888,9.0359,5.8308,0,8.9693-2.3144a6.9136,6.9136,0,0,0,3.1381-5.7422,8.083,8.083,0,0,0-1.4243-4.607q-1.425-2.1135-6.0982-3.316l-11.6177-3.0268a28.6132,28.6132,0,0,1-8.8134-3.5387,13.8513,13.8513,0,0,1-4.5624-5.5863,17.71,17.71,0,0,1-1.7138-7.7006,15.9882,15.9882,0,0,1,6.0537-13.0643q6.0528-4.9179,15.49-4.9186a28.32,28.32,0,0,1,13.9991,3.4274,15.4466,15.4466,0,0,1,7.8565,9.7037l-10.4159,2.5817q-2.4038-6.8991-11.217-6.8994-5.1194,0-7.8119,2.1366a6.6389,6.6389,0,0,0-2.6931,5.43q0,5.2081,8.4575,7.3l10.3267,2.5818q9.3913,2.36,12.597,6.9661a17.4212,17.4212,0,0,1,3.2048,10.171,16.75,16.75,0,0,1-6.7437,14.0879q-6.7435,5.1413-17.4709,5.1412a31.9669,31.9669,0,0,1-15.8239-3.7835A18.558,18.558,0,0,1,158.1569,661.7936Z" transform="translate(3.206 0.7491)"/><rect class="a" x="47.3931" y="818.1047" width="174.1826" height="174.1826"/><rect class="b" x="67.7685" y="798.7128" width="174.1826" height="174.1826"/><path class="c" d="M156.3319,919.4381H144.0912l-12.8195-30.9357-11.7511,15.579v15.3567h-10.95V858.6793h10.95v31.9151q2.0916-3.2487,3.0269-4.4957l20.164-27.4194h11.0833L139.373,878.6652Z" transform="translate(3.206 0.7491)"/><path class="c" d="M158.1569,904.7936l10.6385-2.27q1.9132,9.0367,14.6888,9.0359,5.8308,0,8.9693-2.3144a6.9136,6.9136,0,0,0,3.1381-5.7422,8.083,8.083,0,0,0-1.4243-4.607q-1.425-2.1135-6.0982-3.316l-11.6177-3.0268a28.6132,28.6132,0,0,1-8.8134-3.5387,13.8513,13.8513,0,0,1-4.5624-5.5863,17.71,17.71,0,0,1-1.7138-7.7006,15.9882,15.9882,0,0,1,6.0537-13.0643q6.0528-4.9179,15.49-4.9186a28.32,28.32,0,0,1,13.9991,3.4274,15.4466,15.4466,0,0,1,7.8565,9.7037l-10.4159,2.5817q-2.4038-6.8991-11.217-6.8994-5.1194,0-7.8119,2.1366a6.6389,6.6389,0,0,0-2.6931,5.43q0,5.2081,8.4575,7.3l10.3267,2.5818q9.3913,2.36,12.597,6.9661a17.4212,17.4212,0,0,1,3.2048,10.171,16.75,16.75,0,0,1-6.7437,14.0879q-6.7435,5.1413-17.4709,5.1412a31.9669,31.9669,0,0,1-15.8239-3.7835A18.558,18.558,0,0,1,158.1569,904.7936Z" transform="translate(3.206 0.7491)"/><rect class="a" x="280.0489" y="106.1047" width="174.1826" height="174.1826"/><rect class="b" x="300.4243" y="86.7128" width="174.1826" height="174.1826"/><path class="c" d="M388.9877,207.4381H376.747l-12.82-30.9357-11.7511,15.579v15.3567h-10.95V146.6793h10.95v31.9151q2.0914-3.2487,3.0268-4.4957l20.164-27.4194h11.0833l-14.4217,19.9859Z" transform="translate(3.206 0.7491)"/><path class="c" d="M390.8127,192.7936l10.6385-2.27q1.9133,9.0367,14.6889,9.0359,5.8308,0,8.9692-2.3144a6.9131,6.9131,0,0,0,3.1381-5.7422,8.0822,8.0822,0,0,0-1.4243-4.607q-1.425-2.1135-6.0982-3.316l-11.6177-3.0268a28.6114,28.6114,0,0,1-8.8133-3.5387,13.8507,13.8507,0,0,1-4.5625-5.5863,17.7084,17.7084,0,0,1-1.7137-7.7006,15.9884,15.9884,0,0,1,6.0536-13.0643q6.053-4.9179,15.49-4.9186a28.32,28.32,0,0,1,13.9991,3.4274,15.4463,15.4463,0,0,1,7.8565,9.7037l-10.4159,2.5817q-2.4038-6.8991-11.2169-6.8994-5.12,0-7.812,2.1366a6.6388,6.6388,0,0,0-2.693,5.43q0,5.2082,8.4574,7.3l10.3268,2.5818q9.3912,2.36,12.5969,6.9661a17.42,17.42,0,0,1,3.2048,10.171,16.75,16.75,0,0,1-6.7436,14.0879q-6.7437,5.1413-17.471,5.1412a31.9669,31.9669,0,0,1-15.8239-3.7835A18.558,18.558,0,0,1,390.8127,192.7936Z" transform="translate(3.206 0.7491)"/><rect class="a" x="280.0489" y="339.1047" width="174.1826" height="174.1826"/><rect class="b" x="300.4243" y="319.7128" width="174.1826" height="174.1826"/><path class="c" d="M388.9877,440.4381H376.747l-12.82-30.9357-11.7511,15.579v15.3567h-10.95V379.6793h10.95v31.9151q2.0914-3.2487,3.0268-4.4957l20.164-27.4194h11.0833l-14.4217,19.9859Z" transform="translate(3.206 0.7491)"/><path class="c" d="M390.8127,425.7936l10.6385-2.27q1.9133,9.0367,14.6889,9.0359,5.8308,0,8.9692-2.3144a6.9131,6.9131,0,0,0,3.1381-5.7422,8.0822,8.0822,0,0,0-1.4243-4.607q-1.425-2.1135-6.0982-3.316l-11.6177-3.0268a28.6114,28.6114,0,0,1-8.8133-3.5387,13.8507,13.8507,0,0,1-4.5625-5.5863,17.7084,17.7084,0,0,1-1.7137-7.7006,15.9884,15.9884,0,0,1,6.0536-13.0643q6.053-4.9179,15.49-4.9186a28.32,28.32,0,0,1,13.9991,3.4274,15.4463,15.4463,0,0,1,7.8565,9.7037l-10.4159,2.5817q-2.4038-6.8991-11.2169-6.8994-5.12,0-7.812,2.1366a6.6388,6.6388,0,0,0-2.693,5.43q0,5.2081,8.4574,7.3l10.3268,2.5818q9.3912,2.36,12.5969,6.9661a17.42,17.42,0,0,1,3.2048,10.171,16.75,16.75,0,0,1-6.7436,14.0879q-6.7437,5.1413-17.471,5.1412a31.9669,31.9669,0,0,1-15.8239-3.7835A18.558,18.558,0,0,1,390.8127,425.7936Z" transform="translate(3.206 0.7491)"/><rect class="a" x="280.0489" y="575.1047" width="174.1826" height="174.1826"/><rect class="b" x="300.4243" y="555.7128" width="174.1826" height="174.1826"/><path class="c" d="M388.9877,676.4381H376.747l-12.82-30.9357-11.7511,15.579v15.3567h-10.95V615.6793h10.95v31.9151q2.0914-3.2487,3.0268-4.4957l20.164-27.4194h11.0833l-14.4217,19.9859Z" transform="translate(3.206 0.7491)"/><path class="c" d="M390.8127,661.7936l10.6385-2.27q1.9133,9.0367,14.6889,9.0359,5.8308,0,8.9692-2.3144a6.9131,6.9131,0,0,0,3.1381-5.7422,8.0822,8.0822,0,0,0-1.4243-4.607q-1.425-2.1135-6.0982-3.316l-11.6177-3.0268a28.6114,28.6114,0,0,1-8.8133-3.5387,13.8507,13.8507,0,0,1-4.5625-5.5863,17.7084,17.7084,0,0,1-1.7137-7.7006,15.9884,15.9884,0,0,1,6.0536-13.0643q6.053-4.9179,15.49-4.9186a28.32,28.32,0,0,1,13.9991,3.4274,15.4463,15.4463,0,0,1,7.8565,9.7037l-10.4159,2.5817q-2.4038-6.8991-11.2169-6.8994-5.12,0-7.812,2.1366a6.6388,6.6388,0,0,0-2.693,5.43q0,5.2081,8.4574,7.3l10.3268,2.5818q9.3912,2.36,12.5969,6.9661a17.42,17.42,0,0,1,3.2048,10.171,16.75,16.75,0,0,1-6.7436,14.0879q-6.7437,5.1413-17.471,5.1412a31.9669,31.9669,0,0,1-15.8239-3.7835A18.558,18.558,0,0,1,390.8127,661.7936Z" transform="translate(3.206 0.7491)"/><rect class="a" x="280.0489" y="818.1047" width="174.1826" height="174.1826"/><rect class="b" x="300.4243" y="798.7128" width="174.1826" height="174.1826"/><path class="c" d="M388.9877,919.4381H376.747l-12.82-30.9357-11.7511,15.579v15.3567h-10.95V858.6793h10.95v31.9151q2.0914-3.2487,3.0268-4.4957l20.164-27.4194h11.0833l-14.4217,19.9859Z" transform="translate(3.206 0.7491)"/><path class="c" d="M390.8127,904.7936l10.6385-2.27q1.9133,9.0367,14.6889,9.0359,5.8308,0,8.9692-2.3144a6.9131,6.9131,0,0,0,3.1381-5.7422,8.0822,8.0822,0,0,0-1.4243-4.607q-1.425-2.1135-6.0982-3.316l-11.6177-3.0268a28.6114,28.6114,0,0,1-8.8133-3.5387,13.8507,13.8507,0,0,1-4.5625-5.5863,17.7084,17.7084,0,0,1-1.7137-7.7006,15.9884,15.9884,0,0,1,6.0536-13.0643q6.053-4.9179,15.49-4.9186a28.32,28.32,0,0,1,13.9991,3.4274,15.4463,15.4463,0,0,1,7.8565,9.7037l-10.4159,2.5817q-2.4038-6.8991-11.2169-6.8994-5.12,0-7.812,2.1366a6.6388,6.6388,0,0,0-2.693,5.43q0,5.2081,8.4574,7.3l10.3268,2.5818q9.3912,2.36,12.5969,6.9661a17.42,17.42,0,0,1,3.2048,10.171,16.75,16.75,0,0,1-6.7436,14.0879q-6.7437,5.1413-17.471,5.1412a31.9669,31.9669,0,0,1-15.8239-3.7835A18.558,18.558,0,0,1,390.8127,904.7936Z" transform="translate(3.206 0.7491)"/><rect class="a" x="515.0489" y="106.1047" width="174.1826" height="174.1826"/><rect class="b" x="535.4243" y="86.7128" width="174.1826" height="174.1826"/><path class="c" d="M623.9877,207.4381H611.747l-12.8195-30.9357-11.7511,15.579v15.3567h-10.95V146.6793h10.95v31.9151q2.0915-3.2487,3.0268-4.4957l20.164-27.4194h11.0833l-14.4217,19.9859Z" transform="translate(3.206 0.7491)"/><path class="c" d="M625.8127,192.7936l10.6385-2.27q1.9133,9.0367,14.6889,9.0359,5.8308,0,8.9692-2.3144a6.9131,6.9131,0,0,0,3.1381-5.7422,8.0822,8.0822,0,0,0-1.4243-4.607q-1.425-2.1135-6.0982-3.316l-11.6177-3.0268a28.6114,28.6114,0,0,1-8.8133-3.5387,13.8507,13.8507,0,0,1-4.5625-5.5863,17.7084,17.7084,0,0,1-1.7137-7.7006,15.9884,15.9884,0,0,1,6.0536-13.0643q6.053-4.9179,15.49-4.9186a28.32,28.32,0,0,1,13.9991,3.4274,15.4463,15.4463,0,0,1,7.8565,9.7037l-10.4159,2.5817q-2.4037-6.8991-11.2169-6.8994-5.12,0-7.812,2.1366a6.6388,6.6388,0,0,0-2.693,5.43q0,5.2082,8.4574,7.3l10.3268,2.5818q9.3912,2.36,12.5969,6.9661a17.42,17.42,0,0,1,3.2048,10.171,16.75,16.75,0,0,1-6.7436,14.0879q-6.7437,5.1413-17.471,5.1412a31.9669,31.9669,0,0,1-15.8239-3.7835A18.558,18.558,0,0,1,625.8127,192.7936Z" transform="translate(3.206 0.7491)"/><rect class="a" x="515.0489" y="339.1047" width="174.1826" height="174.1826"/><rect class="b" x="535.4243" y="319.7128" width="174.1826" height="174.1826"/><path class="c" d="M623.9877,440.4381H611.747l-12.8195-30.9357-11.7511,15.579v15.3567h-10.95V379.6793h10.95v31.9151q2.0915-3.2487,3.0268-4.4957l20.164-27.4194h11.0833l-14.4217,19.9859Z" transform="translate(3.206 0.7491)"/><path class="c" d="M625.8127,425.7936l10.6385-2.27q1.9133,9.0367,14.6889,9.0359,5.8308,0,8.9692-2.3144a6.9131,6.9131,0,0,0,3.1381-5.7422,8.0822,8.0822,0,0,0-1.4243-4.607q-1.425-2.1135-6.0982-3.316l-11.6177-3.0268a28.6114,28.6114,0,0,1-8.8133-3.5387,13.8507,13.8507,0,0,1-4.5625-5.5863,17.7084,17.7084,0,0,1-1.7137-7.7006,15.9884,15.9884,0,0,1,6.0536-13.0643q6.053-4.9179,15.49-4.9186a28.32,28.32,0,0,1,13.9991,3.4274,15.4463,15.4463,0,0,1,7.8565,9.7037l-10.4159,2.5817q-2.4037-6.8991-11.2169-6.8994-5.12,0-7.812,2.1366a6.6388,6.6388,0,0,0-2.693,5.43q0,5.2081,8.4574,7.3l10.3268,2.5818q9.3912,2.36,12.5969,6.9661a17.42,17.42,0,0,1,3.2048,10.171,16.75,16.75,0,0,1-6.7436,14.0879q-6.7437,5.1413-17.471,5.1412a31.9669,31.9669,0,0,1-15.8239-3.7835A18.558,18.558,0,0,1,625.8127,425.7936Z" transform="translate(3.206 0.7491)"/><rect class="a" x="515.0489" y="575.1047" width="174.1826" height="174.1826"/><rect class="b" x="535.4243" y="555.7128" width="174.1826" height="174.1826"/><path class="c" d="M623.9877,676.4381H611.747l-12.8195-30.9357-11.7511,15.579v15.3567h-10.95V615.6793h10.95v31.9151q2.0915-3.2487,3.0268-4.4957l20.164-27.4194h11.0833l-14.4217,19.9859Z" transform="translate(3.206 0.7491)"/><path class="c" d="M625.8127,661.7936l10.6385-2.27q1.9133,9.0367,14.6889,9.0359,5.8308,0,8.9692-2.3144a6.9131,6.9131,0,0,0,3.1381-5.7422,8.0822,8.0822,0,0,0-1.4243-4.607q-1.425-2.1135-6.0982-3.316l-11.6177-3.0268a28.6114,28.6114,0,0,1-8.8133-3.5387,13.8507,13.8507,0,0,1-4.5625-5.5863,17.7084,17.7084,0,0,1-1.7137-7.7006,15.9884,15.9884,0,0,1,6.0536-13.0643q6.053-4.9179,15.49-4.9186a28.32,28.32,0,0,1,13.9991,3.4274,15.4463,15.4463,0,0,1,7.8565,9.7037l-10.4159,2.5817q-2.4037-6.8991-11.2169-6.8994-5.12,0-7.812,2.1366a6.6388,6.6388,0,0,0-2.693,5.43q0,5.2081,8.4574,7.3l10.3268,2.5818q9.3912,2.36,12.5969,6.9661a17.42,17.42,0,0,1,3.2048,10.171,16.75,16.75,0,0,1-6.7436,14.0879q-6.7437,5.1413-17.471,5.1412a31.9669,31.9669,0,0,1-15.8239-3.7835A18.558,18.558,0,0,1,625.8127,661.7936Z" transform="translate(3.206 0.7491)"/><rect class="a" x="515.0489" y="818.1047" width="174.1826" height="174.1826"/><rect class="b" x="535.4243" y="798.7128" width="174.1826" height="174.1826"/><path class="c" d="M623.9877,919.4381H611.747l-12.8195-30.9357-11.7511,15.579v15.3567h-10.95V858.6793h10.95v31.9151q2.0915-3.2487,3.0268-4.4957l20.164-27.4194h11.0833l-14.4217,19.9859Z" transform="translate(3.206 0.7491)"/><path class="c" d="M625.8127,904.7936l10.6385-2.27q1.9133,9.0367,14.6889,9.0359,5.8308,0,8.9692-2.3144a6.9131,6.9131,0,0,0,3.1381-5.7422,8.0822,8.0822,0,0,0-1.4243-4.607q-1.425-2.1135-6.0982-3.316l-11.6177-3.0268a28.6114,28.6114,0,0,1-8.8133-3.5387,13.8507,13.8507,0,0,1-4.5625-5.5863,17.7084,17.7084,0,0,1-1.7137-7.7006,15.9884,15.9884,0,0,1,6.0536-13.0643q6.053-4.9179,15.49-4.9186a28.32,28.32,0,0,1,13.9991,3.4274,15.4463,15.4463,0,0,1,7.8565,9.7037l-10.4159,2.5817q-2.4037-6.8991-11.2169-6.8994-5.12,0-7.812,2.1366a6.6388,6.6388,0,0,0-2.693,5.43q0,5.2081,8.4574,7.3l10.3268,2.5818q9.3912,2.36,12.5969,6.9661a17.42,17.42,0,0,1,3.2048,10.171,16.75,16.75,0,0,1-6.7436,14.0879q-6.7437,5.1413-17.471,5.1412a31.9669,31.9669,0,0,1-15.8239-3.7835A18.558,18.558,0,0,1,625.8127,904.7936Z" transform="translate(3.206 0.7491)"/><rect class="a" x="748.0489" y="106.1047" width="174.1826" height="174.1826"/><rect class="b" x="768.4243" y="86.7128" width="174.1826" height="174.1826"/><path class="c" d="M856.9877,207.4381H844.747l-12.8195-30.9357-11.7511,15.579v15.3567h-10.95V146.6793h10.95v31.9151q2.0915-3.2487,3.0268-4.4957l20.164-27.4194h11.0833l-14.4217,19.9859Z" transform="translate(3.206 0.7491)"/><path class="c" d="M858.8127,192.7936l10.6385-2.27q1.9133,9.0367,14.6889,9.0359,5.8308,0,8.9692-2.3144a6.9131,6.9131,0,0,0,3.1381-5.7422,8.0822,8.0822,0,0,0-1.4243-4.607q-1.425-2.1135-6.0982-3.316l-11.6177-3.0268a28.6114,28.6114,0,0,1-8.8133-3.5387,13.8507,13.8507,0,0,1-4.5625-5.5863,17.7084,17.7084,0,0,1-1.7137-7.7006,15.9884,15.9884,0,0,1,6.0536-13.0643q6.053-4.9179,15.49-4.9186a28.32,28.32,0,0,1,13.9991,3.4274,15.4463,15.4463,0,0,1,7.8565,9.7037l-10.4159,2.5817q-2.4037-6.8991-11.2169-6.8994-5.12,0-7.812,2.1366a6.6388,6.6388,0,0,0-2.693,5.43q0,5.2082,8.4574,7.3l10.3268,2.5818q9.3912,2.36,12.5969,6.9661a17.42,17.42,0,0,1,3.2048,10.171,16.75,16.75,0,0,1-6.7436,14.0879q-6.7437,5.1413-17.471,5.1412a31.9669,31.9669,0,0,1-15.8239-3.7835A18.558,18.558,0,0,1,858.8127,192.7936Z" transform="translate(3.206 0.7491)"/><rect class="a" x="748.0489" y="339.1047" width="174.1826" height="174.1826"/><rect class="b" x="768.4243" y="319.7128" width="174.1826" height="174.1826"/><path class="c" d="M856.9877,440.4381H844.747l-12.8195-30.9357-11.7511,15.579v15.3567h-10.95V379.6793h10.95v31.9151q2.0915-3.2487,3.0268-4.4957l20.164-27.4194h11.0833l-14.4217,19.9859Z" transform="translate(3.206 0.7491)"/><path class="c" d="M858.8127,425.7936l10.6385-2.27q1.9133,9.0367,14.6889,9.0359,5.8308,0,8.9692-2.3144a6.9131,6.9131,0,0,0,3.1381-5.7422,8.0822,8.0822,0,0,0-1.4243-4.607q-1.425-2.1135-6.0982-3.316l-11.6177-3.0268a28.6114,28.6114,0,0,1-8.8133-3.5387,13.8507,13.8507,0,0,1-4.5625-5.5863,17.7084,17.7084,0,0,1-1.7137-7.7006,15.9884,15.9884,0,0,1,6.0536-13.0643q6.053-4.9179,15.49-4.9186a28.32,28.32,0,0,1,13.9991,3.4274,15.4463,15.4463,0,0,1,7.8565,9.7037l-10.4159,2.5817q-2.4037-6.8991-11.2169-6.8994-5.12,0-7.812,2.1366a6.6388,6.6388,0,0,0-2.693,5.43q0,5.2081,8.4574,7.3l10.3268,2.5818q9.3912,2.36,12.5969,6.9661a17.42,17.42,0,0,1,3.2048,10.171,16.75,16.75,0,0,1-6.7436,14.0879q-6.7437,5.1413-17.471,5.1412a31.9669,31.9669,0,0,1-15.8239-3.7835A18.558,18.558,0,0,1,858.8127,425.7936Z" transform="translate(3.206 0.7491)"/><rect class="a" x="748.0489" y="575.1047" width="174.1826" height="174.1826"/><rect class="b" x="768.4243" y="555.7128" width="174.1826" height="174.1826"/><path class="c" d="M856.9877,676.4381H844.747l-12.8195-30.9357-11.7511,15.579v15.3567h-10.95V615.6793h10.95v31.9151q2.0915-3.2487,3.0268-4.4957l20.164-27.4194h11.0833l-14.4217,19.9859Z" transform="translate(3.206 0.7491)"/><path class="c" d="M858.8127,661.7936l10.6385-2.27q1.9133,9.0367,14.6889,9.0359,5.8308,0,8.9692-2.3144a6.9131,6.9131,0,0,0,3.1381-5.7422,8.0822,8.0822,0,0,0-1.4243-4.607q-1.425-2.1135-6.0982-3.316l-11.6177-3.0268a28.6114,28.6114,0,0,1-8.8133-3.5387,13.8507,13.8507,0,0,1-4.5625-5.5863,17.7084,17.7084,0,0,1-1.7137-7.7006,15.9884,15.9884,0,0,1,6.0536-13.0643q6.053-4.9179,15.49-4.9186a28.32,28.32,0,0,1,13.9991,3.4274,15.4463,15.4463,0,0,1,7.8565,9.7037l-10.4159,2.5817q-2.4037-6.8991-11.2169-6.8994-5.12,0-7.812,2.1366a6.6388,6.6388,0,0,0-2.693,5.43q0,5.2081,8.4574,7.3l10.3268,2.5818q9.3912,2.36,12.5969,6.9661a17.42,17.42,0,0,1,3.2048,10.171,16.75,16.75,0,0,1-6.7436,14.0879q-6.7437,5.1413-17.471,5.1412a31.9669,31.9669,0,0,1-15.8239-3.7835A18.558,18.558,0,0,1,858.8127,661.7936Z" transform="translate(3.206 0.7491)"/><rect class="a" x="748.0489" y="818.1047" width="174.1826" height="174.1826"/><rect class="b" x="768.4243" y="798.7128" width="174.1826" height="174.1826"/><path class="c" d="M856.9877,919.4381H844.747l-12.8195-30.9357-11.7511,15.579v15.3567h-10.95V858.6793h10.95v31.9151q2.0915-3.2487,3.0268-4.4957l20.164-27.4194h11.0833l-14.4217,19.9859Z" transform="translate(3.206 0.7491)"/><path class="c" d="M858.8127,904.7936l10.6385-2.27q1.9133,9.0367,14.6889,9.0359,5.8308,0,8.9692-2.3144a6.9131,6.9131,0,0,0,3.1381-5.7422,8.0822,8.0822,0,0,0-1.4243-4.607q-1.425-2.1135-6.0982-3.316l-11.6177-3.0268a28.6114,28.6114,0,0,1-8.8133-3.5387,13.8507,13.8507,0,0,1-4.5625-5.5863,17.7084,17.7084,0,0,1-1.7137-7.7006,15.9884,15.9884,0,0,1,6.0536-13.0643q6.053-4.9179,15.49-4.9186a28.32,28.32,0,0,1,13.9991,3.4274,15.4463,15.4463,0,0,1,7.8565,9.7037l-10.4159,2.5817q-2.4037-6.8991-11.2169-6.8994-5.12,0-7.812,2.1366a6.6388,6.6388,0,0,0-2.693,5.43q0,5.2081,8.4574,7.3l10.3268,2.5818q9.3912,2.36,12.5969,6.9661a17.42,17.42,0,0,1,3.2048,10.171,16.75,16.75,0,0,1-6.7436,14.0879q-6.7437,5.1413-17.471,5.1412a31.9669,31.9669,0,0,1-15.8239-3.7835A18.558,18.558,0,0,1,858.8127,904.7936Z" transform="translate(3.206 0.7491)"/><rect class="a" x="981.3931" y="106.1047" width="174.1826" height="174.1826"/><rect class="b" x="1001.7685" y="86.7128" width="174.1826" height="174.1826"/><path class="c" d="M1090.3319,207.4381h-12.2407l-12.82-30.9357-11.7511,15.579v15.3567h-10.95V146.6793h10.95v31.9151q2.0916-3.2487,3.0269-4.4957l20.164-27.4194h11.0833l-14.4217,19.9859Z" transform="translate(3.206 0.7491)"/><path class="c" d="M1092.1569,192.7936l10.6385-2.27q1.9133,9.0367,14.6888,9.0359,5.8308,0,8.9693-2.3144a6.9136,6.9136,0,0,0,3.1381-5.7422,8.083,8.083,0,0,0-1.4243-4.607q-1.425-2.1135-6.0982-3.316l-11.6177-3.0268a28.6132,28.6132,0,0,1-8.8134-3.5387,13.8513,13.8513,0,0,1-4.5624-5.5863,17.71,17.71,0,0,1-1.7138-7.7006,15.9882,15.9882,0,0,1,6.0537-13.0643q6.0528-4.9179,15.49-4.9186a28.32,28.32,0,0,1,13.9991,3.4274,15.4466,15.4466,0,0,1,7.8565,9.7037l-10.4159,2.5817q-2.4037-6.8991-11.217-6.8994-5.1194,0-7.8119,2.1366a6.6389,6.6389,0,0,0-2.6931,5.43q0,5.2082,8.4575,7.3l10.3267,2.5818q9.3914,2.36,12.597,6.9661a17.4212,17.4212,0,0,1,3.2048,10.171,16.75,16.75,0,0,1-6.7437,14.0879q-6.7435,5.1413-17.4709,5.1412a31.9669,31.9669,0,0,1-15.8239-3.7835A18.558,18.558,0,0,1,1092.1569,192.7936Z" transform="translate(3.206 0.7491)"/><rect class="a" x="981.3931" y="339.1047" width="174.1826" height="174.1826"/><rect class="b" x="1001.7685" y="319.7128" width="174.1826" height="174.1826"/><path class="c" d="M1090.3319,440.4381h-12.2407l-12.82-30.9357-11.7511,15.579v15.3567h-10.95V379.6793h10.95v31.9151q2.0916-3.2487,3.0269-4.4957l20.164-27.4194h11.0833l-14.4217,19.9859Z" transform="translate(3.206 0.7491)"/><path class="c" d="M1092.1569,425.7936l10.6385-2.27q1.9133,9.0367,14.6888,9.0359,5.8308,0,8.9693-2.3144a6.9136,6.9136,0,0,0,3.1381-5.7422,8.083,8.083,0,0,0-1.4243-4.607q-1.425-2.1135-6.0982-3.316l-11.6177-3.0268a28.6132,28.6132,0,0,1-8.8134-3.5387,13.8513,13.8513,0,0,1-4.5624-5.5863,17.71,17.71,0,0,1-1.7138-7.7006,15.9882,15.9882,0,0,1,6.0537-13.0643q6.0528-4.9179,15.49-4.9186a28.32,28.32,0,0,1,13.9991,3.4274,15.4466,15.4466,0,0,1,7.8565,9.7037l-10.4159,2.5817q-2.4037-6.8991-11.217-6.8994-5.1194,0-7.8119,2.1366a6.6389,6.6389,0,0,0-2.6931,5.43q0,5.2081,8.4575,7.3l10.3267,2.5818q9.3914,2.36,12.597,6.9661a17.4212,17.4212,0,0,1,3.2048,10.171,16.75,16.75,0,0,1-6.7437,14.0879q-6.7435,5.1413-17.4709,5.1412a31.9669,31.9669,0,0,1-15.8239-3.7835A18.558,18.558,0,0,1,1092.1569,425.7936Z" transform="translate(3.206 0.7491)"/><rect class="a" x="981.3931" y="575.1047" width="174.1826" height="174.1826"/><rect class="b" x="1001.7685" y="555.7128" width="174.1826" height="174.1826"/><path class="c" d="M1090.3319,676.4381h-12.2407l-12.82-30.9357-11.7511,15.579v15.3567h-10.95V615.6793h10.95v31.9151q2.0916-3.2487,3.0269-4.4957l20.164-27.4194h11.0833l-14.4217,19.9859Z" transform="translate(3.206 0.7491)"/><path class="c" d="M1092.1569,661.7936l10.6385-2.27q1.9133,9.0367,14.6888,9.0359,5.8308,0,8.9693-2.3144a6.9136,6.9136,0,0,0,3.1381-5.7422,8.083,8.083,0,0,0-1.4243-4.607q-1.425-2.1135-6.0982-3.316l-11.6177-3.0268a28.6132,28.6132,0,0,1-8.8134-3.5387,13.8513,13.8513,0,0,1-4.5624-5.5863,17.71,17.71,0,0,1-1.7138-7.7006,15.9882,15.9882,0,0,1,6.0537-13.0643q6.0528-4.9179,15.49-4.9186a28.32,28.32,0,0,1,13.9991,3.4274,15.4466,15.4466,0,0,1,7.8565,9.7037l-10.4159,2.5817q-2.4037-6.8991-11.217-6.8994-5.1194,0-7.8119,2.1366a6.6389,6.6389,0,0,0-2.6931,5.43q0,5.2081,8.4575,7.3l10.3267,2.5818q9.3914,2.36,12.597,6.9661a17.4212,17.4212,0,0,1,3.2048,10.171,16.75,16.75,0,0,1-6.7437,14.0879q-6.7435,5.1413-17.4709,5.1412a31.9669,31.9669,0,0,1-15.8239-3.7835A18.558,18.558,0,0,1,1092.1569,661.7936Z" transform="translate(3.206 0.7491)"/><rect class="a" x="981.3931" y="818.1047" width="174.1826" height="174.1826"/><rect class="b" x="1001.7685" y="798.7128" width="174.1826" height="174.1826"/><path class="c" d="M1090.3319,919.4381h-12.2407l-12.82-30.9357-11.7511,15.579v15.3567h-10.95V858.6793h10.95v31.9151q2.0916-3.2487,3.0269-4.4957l20.164-27.4194h11.0833l-14.4217,19.9859Z" transform="translate(3.206 0.7491)"/><path class="c" d="M1092.1569,904.7936l10.6385-2.27q1.9133,9.0367,14.6888,9.0359,5.8308,0,8.9693-2.3144a6.9136,6.9136,0,0,0,3.1381-5.7422,8.083,8.083,0,0,0-1.4243-4.607q-1.425-2.1135-6.0982-3.316l-11.6177-3.0268a28.6132,28.6132,0,0,1-8.8134-3.5387,13.8513,13.8513,0,0,1-4.5624-5.5863,17.71,17.71,0,0,1-1.7138-7.7006,15.9882,15.9882,0,0,1,6.0537-13.0643q6.0528-4.9179,15.49-4.9186a28.32,28.32,0,0,1,13.9991,3.4274,15.4466,15.4466,0,0,1,7.8565,9.7037l-10.4159,2.5817q-2.4037-6.8991-11.217-6.8994-5.1194,0-7.8119,2.1366a6.6389,6.6389,0,0,0-2.6931,5.43q0,5.2081,8.4575,7.3l10.3267,2.5818q9.3914,2.36,12.597,6.9661a17.4212,17.4212,0,0,1,3.2048,10.171,16.75,16.75,0,0,1-6.7437,14.0879q-6.7435,5.1413-17.4709,5.1412a31.9669,31.9669,0,0,1-15.8239-3.7835A18.558,18.558,0,0,1,1092.1569,904.7936Z" transform="translate(3.206 0.7491)"/><rect class="a" x="1214.0489" y="106.1047" width="174.1826" height="174.1826"/><rect class="b" x="1234.4243" y="86.7128" width="174.1826" height="174.1826"/><path class="c" d="M1322.9877,207.4381H1310.747l-12.82-30.9357-11.7511,15.579v15.3567h-10.95V146.6793h10.95v31.9151q2.0914-3.2487,3.0268-4.4957l20.164-27.4194h11.0833l-14.4217,19.9859Z" transform="translate(3.206 0.7491)"/><path class="c" d="M1324.8127,192.7936l10.6385-2.27q1.9133,9.0367,14.6889,9.0359,5.8308,0,8.9692-2.3144a6.9131,6.9131,0,0,0,3.1381-5.7422,8.0822,8.0822,0,0,0-1.4243-4.607q-1.425-2.1135-6.0982-3.316l-11.6177-3.0268a28.6114,28.6114,0,0,1-8.8133-3.5387,13.8507,13.8507,0,0,1-4.5625-5.5863,17.7084,17.7084,0,0,1-1.7137-7.7006,15.9884,15.9884,0,0,1,6.0536-13.0643q6.053-4.9179,15.49-4.9186a28.32,28.32,0,0,1,13.9991,3.4274,15.4463,15.4463,0,0,1,7.8565,9.7037l-10.4159,2.5817q-2.4037-6.8991-11.2169-6.8994-5.12,0-7.812,2.1366a6.6388,6.6388,0,0,0-2.693,5.43q0,5.2082,8.4574,7.3l10.3268,2.5818q9.3912,2.36,12.5969,6.9661a17.42,17.42,0,0,1,3.2048,10.171,16.75,16.75,0,0,1-6.7436,14.0879q-6.7437,5.1413-17.471,5.1412a31.9669,31.9669,0,0,1-15.8239-3.7835A18.558,18.558,0,0,1,1324.8127,192.7936Z" transform="translate(3.206 0.7491)"/><rect class="a" x="1214.0489" y="339.1047" width="174.1826" height="174.1826"/><rect class="b" x="1234.4243" y="319.7128" width="174.1826" height="174.1826"/><path class="c" d="M1322.9877,440.4381H1310.747l-12.82-30.9357-11.7511,15.579v15.3567h-10.95V379.6793h10.95v31.9151q2.0914-3.2487,3.0268-4.4957l20.164-27.4194h11.0833l-14.4217,19.9859Z" transform="translate(3.206 0.7491)"/><path class="c" d="M1324.8127,425.7936l10.6385-2.27q1.9133,9.0367,14.6889,9.0359,5.8308,0,8.9692-2.3144a6.9131,6.9131,0,0,0,3.1381-5.7422,8.0822,8.0822,0,0,0-1.4243-4.607q-1.425-2.1135-6.0982-3.316l-11.6177-3.0268a28.6114,28.6114,0,0,1-8.8133-3.5387,13.8507,13.8507,0,0,1-4.5625-5.5863,17.7084,17.7084,0,0,1-1.7137-7.7006,15.9884,15.9884,0,0,1,6.0536-13.0643q6.053-4.9179,15.49-4.9186a28.32,28.32,0,0,1,13.9991,3.4274,15.4463,15.4463,0,0,1,7.8565,9.7037l-10.4159,2.5817q-2.4037-6.8991-11.2169-6.8994-5.12,0-7.812,2.1366a6.6388,6.6388,0,0,0-2.693,5.43q0,5.2081,8.4574,7.3l10.3268,2.5818q9.3912,2.36,12.5969,6.9661a17.42,17.42,0,0,1,3.2048,10.171,16.75,16.75,0,0,1-6.7436,14.0879q-6.7437,5.1413-17.471,5.1412a31.9669,31.9669,0,0,1-15.8239-3.7835A18.558,18.558,0,0,1,1324.8127,425.7936Z" transform="translate(3.206 0.7491)"/><rect class="a" x="1214.0489" y="575.1047" width="174.1826" height="174.1826"/><rect class="b" x="1234.4243" y="555.7128" width="174.1826" height="174.1826"/><path class="c" d="M1322.9877,676.4381H1310.747l-12.82-30.9357-11.7511,15.579v15.3567h-10.95V615.6793h10.95v31.9151q2.0914-3.2487,3.0268-4.4957l20.164-27.4194h11.0833l-14.4217,19.9859Z" transform="translate(3.206 0.7491)"/><path class="c" d="M1324.8127,661.7936l10.6385-2.27q1.9133,9.0367,14.6889,9.0359,5.8308,0,8.9692-2.3144a6.9131,6.9131,0,0,0,3.1381-5.7422,8.0822,8.0822,0,0,0-1.4243-4.607q-1.425-2.1135-6.0982-3.316l-11.6177-3.0268a28.6114,28.6114,0,0,1-8.8133-3.5387,13.8507,13.8507,0,0,1-4.5625-5.5863,17.7084,17.7084,0,0,1-1.7137-7.7006,15.9884,15.9884,0,0,1,6.0536-13.0643q6.053-4.9179,15.49-4.9186a28.32,28.32,0,0,1,13.9991,3.4274,15.4463,15.4463,0,0,1,7.8565,9.7037l-10.4159,2.5817q-2.4037-6.8991-11.2169-6.8994-5.12,0-7.812,2.1366a6.6388,6.6388,0,0,0-2.693,5.43q0,5.2081,8.4574,7.3l10.3268,2.5818q9.3912,2.36,12.5969,6.9661a17.42,17.42,0,0,1,3.2048,10.171,16.75,16.75,0,0,1-6.7436,14.0879q-6.7437,5.1413-17.471,5.1412a31.9669,31.9669,0,0,1-15.8239-3.7835A18.558,18.558,0,0,1,1324.8127,661.7936Z" transform="translate(3.206 0.7491)"/><rect class="a" x="1214.0489" y="818.1047" width="174.1826" height="174.1826"/><rect class="b" x="1234.4243" y="798.7128" width="174.1826" height="174.1826"/><path class="c" d="M1322.9877,919.4381H1310.747l-12.82-30.9357-11.7511,15.579v15.3567h-10.95V858.6793h10.95v31.9151q2.0914-3.2487,3.0268-4.4957l20.164-27.4194h11.0833l-14.4217,19.9859Z" transform="translate(3.206 0.7491)"/><path class="c" d="M1324.8127,904.7936l10.6385-2.27q1.9133,9.0367,14.6889,9.0359,5.8308,0,8.9692-2.3144a6.9131,6.9131,0,0,0,3.1381-5.7422,8.0822,8.0822,0,0,0-1.4243-4.607q-1.425-2.1135-6.0982-3.316l-11.6177-3.0268a28.6114,28.6114,0,0,1-8.8133-3.5387,13.8507,13.8507,0,0,1-4.5625-5.5863,17.7084,17.7084,0,0,1-1.7137-7.7006,15.9884,15.9884,0,0,1,6.0536-13.0643q6.053-4.9179,15.49-4.9186a28.32,28.32,0,0,1,13.9991,3.4274,15.4463,15.4463,0,0,1,7.8565,9.7037l-10.4159,2.5817q-2.4037-6.8991-11.2169-6.8994-5.12,0-7.812,2.1366a6.6388,6.6388,0,0,0-2.693,5.43q0,5.2081,8.4574,7.3l10.3268,2.5818q9.3912,2.36,12.5969,6.9661a17.42,17.42,0,0,1,3.2048,10.171,16.75,16.75,0,0,1-6.7436,14.0879q-6.7437,5.1413-17.471,5.1412a31.9669,31.9669,0,0,1-15.8239-3.7835A18.558,18.558,0,0,1,1324.8127,904.7936Z" transform="translate(3.206 0.7491)"/><rect class="a" x="1449.0489" y="106.1047" width="174.1826" height="174.1826"/><rect class="b" x="1469.4243" y="86.7128" width="174.1826" height="174.1826"/><path class="c" d="M1557.9877,207.4381H1545.747l-12.82-30.9357-11.7511,15.579v15.3567h-10.95V146.6793h10.95v31.9151q2.0914-3.2487,3.0268-4.4957l20.164-27.4194h11.0833l-14.4217,19.9859Z" transform="translate(3.206 0.7491)"/><path class="c" d="M1559.8127,192.7936l10.6385-2.27q1.9133,9.0367,14.6889,9.0359,5.8308,0,8.9692-2.3144a6.9131,6.9131,0,0,0,3.1381-5.7422,8.0822,8.0822,0,0,0-1.4243-4.607q-1.425-2.1135-6.0982-3.316l-11.6177-3.0268a28.6114,28.6114,0,0,1-8.8133-3.5387,13.8507,13.8507,0,0,1-4.5625-5.5863,17.7084,17.7084,0,0,1-1.7137-7.7006,15.9884,15.9884,0,0,1,6.0536-13.0643q6.053-4.9179,15.49-4.9186a28.32,28.32,0,0,1,13.9991,3.4274,15.4463,15.4463,0,0,1,7.8565,9.7037l-10.4159,2.5817q-2.4037-6.8991-11.2169-6.8994-5.12,0-7.812,2.1366a6.6388,6.6388,0,0,0-2.693,5.43q0,5.2082,8.4574,7.3l10.3268,2.5818q9.3912,2.36,12.5969,6.9661a17.42,17.42,0,0,1,3.2048,10.171,16.75,16.75,0,0,1-6.7436,14.0879q-6.7437,5.1413-17.471,5.1412a31.9669,31.9669,0,0,1-15.8239-3.7835A18.558,18.558,0,0,1,1559.8127,192.7936Z" transform="translate(3.206 0.7491)"/><rect class="a" x="1449.0489" y="339.1047" width="174.1826" height="174.1826"/><rect class="b" x="1469.4243" y="319.7128" width="174.1826" height="174.1826"/><path class="c" d="M1557.9877,440.4381H1545.747l-12.82-30.9357-11.7511,15.579v15.3567h-10.95V379.6793h10.95v31.9151q2.0914-3.2487,3.0268-4.4957l20.164-27.4194h11.0833l-14.4217,19.9859Z" transform="translate(3.206 0.7491)"/><path class="c" d="M1559.8127,425.7936l10.6385-2.27q1.9133,9.0367,14.6889,9.0359,5.8308,0,8.9692-2.3144a6.9131,6.9131,0,0,0,3.1381-5.7422,8.0822,8.0822,0,0,0-1.4243-4.607q-1.425-2.1135-6.0982-3.316l-11.6177-3.0268a28.6114,28.6114,0,0,1-8.8133-3.5387,13.8507,13.8507,0,0,1-4.5625-5.5863,17.7084,17.7084,0,0,1-1.7137-7.7006,15.9884,15.9884,0,0,1,6.0536-13.0643q6.053-4.9179,15.49-4.9186a28.32,28.32,0,0,1,13.9991,3.4274,15.4463,15.4463,0,0,1,7.8565,9.7037l-10.4159,2.5817q-2.4037-6.8991-11.2169-6.8994-5.12,0-7.812,2.1366a6.6388,6.6388,0,0,0-2.693,5.43q0,5.2081,8.4574,7.3l10.3268,2.5818q9.3912,2.36,12.5969,6.9661a17.42,17.42,0,0,1,3.2048,10.171,16.75,16.75,0,0,1-6.7436,14.0879q-6.7437,5.1413-17.471,5.1412a31.9669,31.9669,0,0,1-15.8239-3.7835A18.558,18.558,0,0,1,1559.8127,425.7936Z" transform="translate(3.206 0.7491)"/><rect class="a" x="1449.0489" y="575.1047" width="174.1826" height="174.1826"/><rect class="b" x="1469.4243" y="555.7128" width="174.1826" height="174.1826"/><path class="c" d="M1557.9877,676.4381H1545.747l-12.82-30.9357-11.7511,15.579v15.3567h-10.95V615.6793h10.95v31.9151q2.0914-3.2487,3.0268-4.4957l20.164-27.4194h11.0833l-14.4217,19.9859Z" transform="translate(3.206 0.7491)"/><path class="c" d="M1559.8127,661.7936l10.6385-2.27q1.9133,9.0367,14.6889,9.0359,5.8308,0,8.9692-2.3144a6.9131,6.9131,0,0,0,3.1381-5.7422,8.0822,8.0822,0,0,0-1.4243-4.607q-1.425-2.1135-6.0982-3.316l-11.6177-3.0268a28.6114,28.6114,0,0,1-8.8133-3.5387,13.8507,13.8507,0,0,1-4.5625-5.5863,17.7084,17.7084,0,0,1-1.7137-7.7006,15.9884,15.9884,0,0,1,6.0536-13.0643q6.053-4.9179,15.49-4.9186a28.32,28.32,0,0,1,13.9991,3.4274,15.4463,15.4463,0,0,1,7.8565,9.7037l-10.4159,2.5817q-2.4037-6.8991-11.2169-6.8994-5.12,0-7.812,2.1366a6.6388,6.6388,0,0,0-2.693,5.43q0,5.2081,8.4574,7.3l10.3268,2.5818q9.3912,2.36,12.5969,6.9661a17.42,17.42,0,0,1,3.2048,10.171,16.75,16.75,0,0,1-6.7436,14.0879q-6.7437,5.1413-17.471,5.1412a31.9669,31.9669,0,0,1-15.8239-3.7835A18.558,18.558,0,0,1,1559.8127,661.7936Z" transform="translate(3.206 0.7491)"/><rect class="a" x="1449.0489" y="818.1047" width="174.1826" height="174.1826"/><rect class="b" x="1469.4243" y="798.7128" width="174.1826" height="174.1826"/><path class="c" d="M1557.9877,919.4381H1545.747l-12.82-30.9357-11.7511,15.579v15.3567h-10.95V858.6793h10.95v31.9151q2.0914-3.2487,3.0268-4.4957l20.164-27.4194h11.0833l-14.4217,19.9859Z" transform="translate(3.206 0.7491)"/><path class="c" d="M1559.8127,904.7936l10.6385-2.27q1.9133,9.0367,14.6889,9.0359,5.8308,0,8.9692-2.3144a6.9131,6.9131,0,0,0,3.1381-5.7422,8.0822,8.0822,0,0,0-1.4243-4.607q-1.425-2.1135-6.0982-3.316l-11.6177-3.0268a28.6114,28.6114,0,0,1-8.8133-3.5387,13.8507,13.8507,0,0,1-4.5625-5.5863,17.7084,17.7084,0,0,1-1.7137-7.7006,15.9884,15.9884,0,0,1,6.0536-13.0643q6.053-4.9179,15.49-4.9186a28.32,28.32,0,0,1,13.9991,3.4274,15.4463,15.4463,0,0,1,7.8565,9.7037l-10.4159,2.5817q-2.4037-6.8991-11.2169-6.8994-5.12,0-7.812,2.1366a6.6388,6.6388,0,0,0-2.693,5.43q0,5.2081,8.4574,7.3l10.3268,2.5818q9.3912,2.36,12.5969,6.9661a17.42,17.42,0,0,1,3.2048,10.171,16.75,16.75,0,0,1-6.7436,14.0879q-6.7437,5.1413-17.471,5.1412a31.9669,31.9669,0,0,1-15.8239-3.7835A18.558,18.558,0,0,1,1559.8127,904.7936Z" transform="translate(3.206 0.7491)"/><rect class="a" x="1682.0489" y="106.1047" width="174.1826" height="174.1826"/><rect class="b" x="1702.4243" y="86.7128" width="174.1826" height="174.1826"/><path class="c" d="M1790.9877,207.4381H1778.747l-12.82-30.9357-11.7511,15.579v15.3567h-10.95V146.6793h10.95v31.9151q2.0914-3.2487,3.0268-4.4957l20.164-27.4194h11.0833l-14.4217,19.9859Z" transform="translate(3.206 0.7491)"/><path class="c" d="M1792.8127,192.7936l10.6385-2.27q1.9133,9.0367,14.6889,9.0359,5.8308,0,8.9692-2.3144a6.9131,6.9131,0,0,0,3.1381-5.7422,8.0822,8.0822,0,0,0-1.4243-4.607q-1.425-2.1135-6.0982-3.316l-11.6177-3.0268a28.6114,28.6114,0,0,1-8.8133-3.5387,13.8507,13.8507,0,0,1-4.5625-5.5863,17.7084,17.7084,0,0,1-1.7137-7.7006,15.9884,15.9884,0,0,1,6.0536-13.0643q6.053-4.9179,15.49-4.9186a28.32,28.32,0,0,1,13.9991,3.4274,15.4463,15.4463,0,0,1,7.8565,9.7037l-10.4159,2.5817q-2.4037-6.8991-11.2169-6.8994-5.12,0-7.812,2.1366a6.6388,6.6388,0,0,0-2.693,5.43q0,5.2082,8.4574,7.3l10.3268,2.5818q9.3912,2.36,12.5969,6.9661a17.42,17.42,0,0,1,3.2048,10.171,16.75,16.75,0,0,1-6.7436,14.0879q-6.7437,5.1413-17.471,5.1412a31.9669,31.9669,0,0,1-15.8239-3.7835A18.558,18.558,0,0,1,1792.8127,192.7936Z" transform="translate(3.206 0.7491)"/><rect class="a" x="1682.0489" y="339.1047" width="174.1826" height="174.1826"/><rect class="b" x="1702.4243" y="319.7128" width="174.1826" height="174.1826"/><path class="c" d="M1790.9877,440.4381H1778.747l-12.82-30.9357-11.7511,15.579v15.3567h-10.95V379.6793h10.95v31.9151q2.0914-3.2487,3.0268-4.4957l20.164-27.4194h11.0833l-14.4217,19.9859Z" transform="translate(3.206 0.7491)"/><path class="c" d="M1792.8127,425.7936l10.6385-2.27q1.9133,9.0367,14.6889,9.0359,5.8308,0,8.9692-2.3144a6.9131,6.9131,0,0,0,3.1381-5.7422,8.0822,8.0822,0,0,0-1.4243-4.607q-1.425-2.1135-6.0982-3.316l-11.6177-3.0268a28.6114,28.6114,0,0,1-8.8133-3.5387,13.8507,13.8507,0,0,1-4.5625-5.5863,17.7084,17.7084,0,0,1-1.7137-7.7006,15.9884,15.9884,0,0,1,6.0536-13.0643q6.053-4.9179,15.49-4.9186a28.32,28.32,0,0,1,13.9991,3.4274,15.4463,15.4463,0,0,1,7.8565,9.7037l-10.4159,2.5817q-2.4037-6.8991-11.2169-6.8994-5.12,0-7.812,2.1366a6.6388,6.6388,0,0,0-2.693,5.43q0,5.2081,8.4574,7.3l10.3268,2.5818q9.3912,2.36,12.5969,6.9661a17.42,17.42,0,0,1,3.2048,10.171,16.75,16.75,0,0,1-6.7436,14.0879q-6.7437,5.1413-17.471,5.1412a31.9669,31.9669,0,0,1-15.8239-3.7835A18.558,18.558,0,0,1,1792.8127,425.7936Z" transform="translate(3.206 0.7491)"/><rect class="a" x="1682.0489" y="575.1047" width="174.1826" height="174.1826"/><rect class="b" x="1702.4243" y="555.7128" width="174.1826" height="174.1826"/><path class="c" d="M1790.9877,676.4381H1778.747l-12.82-30.9357-11.7511,15.579v15.3567h-10.95V615.6793h10.95v31.9151q2.0914-3.2487,3.0268-4.4957l20.164-27.4194h11.0833l-14.4217,19.9859Z" transform="translate(3.206 0.7491)"/><path class="c" d="M1792.8127,661.7936l10.6385-2.27q1.9133,9.0367,14.6889,9.0359,5.8308,0,8.9692-2.3144a6.9131,6.9131,0,0,0,3.1381-5.7422,8.0822,8.0822,0,0,0-1.4243-4.607q-1.425-2.1135-6.0982-3.316l-11.6177-3.0268a28.6114,28.6114,0,0,1-8.8133-3.5387,13.8507,13.8507,0,0,1-4.5625-5.5863,17.7084,17.7084,0,0,1-1.7137-7.7006,15.9884,15.9884,0,0,1,6.0536-13.0643q6.053-4.9179,15.49-4.9186a28.32,28.32,0,0,1,13.9991,3.4274,15.4463,15.4463,0,0,1,7.8565,9.7037l-10.4159,2.5817q-2.4037-6.8991-11.2169-6.8994-5.12,0-7.812,2.1366a6.6388,6.6388,0,0,0-2.693,5.43q0,5.2081,8.4574,7.3l10.3268,2.5818q9.3912,2.36,12.5969,6.9661a17.42,17.42,0,0,1,3.2048,10.171,16.75,16.75,0,0,1-6.7436,14.0879q-6.7437,5.1413-17.471,5.1412a31.9669,31.9669,0,0,1-15.8239-3.7835A18.558,18.558,0,0,1,1792.8127,661.7936Z" transform="translate(3.206 0.7491)"/><rect class="a" x="1682.0489" y="818.1047" width="174.1826" height="174.1826"/><rect class="b" x="1702.4243" y="798.7128" width="174.1826" height="174.1826"/><path class="c" d="M1790.9877,919.4381H1778.747l-12.82-30.9357-11.7511,15.579v15.3567h-10.95V858.6793h10.95v31.9151q2.0914-3.2487,3.0268-4.4957l20.164-27.4194h11.0833l-14.4217,19.9859Z" transform="translate(3.206 0.7491)"/><path class="c" d="M1792.8127,904.7936l10.6385-2.27q1.9133,9.0367,14.6889,9.0359,5.8308,0,8.9692-2.3144a6.9131,6.9131,0,0,0,3.1381-5.7422,8.0822,8.0822,0,0,0-1.4243-4.607q-1.425-2.1135-6.0982-3.316l-11.6177-3.0268a28.6114,28.6114,0,0,1-8.8133-3.5387,13.8507,13.8507,0,0,1-4.5625-5.5863,17.7084,17.7084,0,0,1-1.7137-7.7006,15.9884,15.9884,0,0,1,6.0536-13.0643q6.053-4.9179,15.49-4.9186a28.32,28.32,0,0,1,13.9991,3.4274,15.4463,15.4463,0,0,1,7.8565,9.7037l-10.4159,2.5817q-2.4037-6.8991-11.2169-6.8994-5.12,0-7.812,2.1366a6.6388,6.6388,0,0,0-2.693,5.43q0,5.2081,8.4574,7.3l10.3268,2.5818q9.3912,2.36,12.5969,6.9661a17.42,17.42,0,0,1,3.2048,10.171,16.75,16.75,0,0,1-6.7436,14.0879q-6.7437,5.1413-17.471,5.1412a31.9669,31.9669,0,0,1-15.8239-3.7835A18.558,18.558,0,0,1,1792.8127,904.7936Z" transform="translate(3.206 0.7491)"/><rect class="d" x="0.5" y="0.5" width="1923" height="1078"/></svg>